<?xml version="1.0" encoding="UTF-8" standalone="no"?>
<!-- Created with Inkscape (http://www.inkscape.org/) -->

<svg
   xmlns:dc="http://purl.org/dc/elements/1.1/"
   xmlns:cc="http://creativecommons.org/ns#"
   xmlns:rdf="http://www.w3.org/1999/02/22-rdf-syntax-ns#"
   xmlns:svg="http://www.w3.org/2000/svg"
   xmlns="http://www.w3.org/2000/svg"
   version="1.1"
   width="812.5"
   height="1750"
   id="svg3004"
   xml:space="preserve"><metadata
     id="metadata3010"><rdf:RDF><cc:Work
         rdf:about=""><dc:format>image/svg+xml</dc:format><dc:type
           rdf:resource="http://purl.org/dc/dcmitype/StillImage" /><dc:title></dc:title></cc:Work></rdf:RDF></metadata><defs
     id="defs3008" /><g
     transform="matrix(1.25,0,0,-1.25,0,1750)"
     id="g3012"><g
       transform="scale(0.1,0.1)"
       id="g3014"><path
         d="M 180.922,1973.94 C 612.273,788.805 1738.81,0 3000,0 c 1656.85,0 3000,1343.15 3000,3000 0,850.23 -360.77,1660.52 -992.61,2229.43 l 0,41.14 C 5639.23,5839.48 6000,6649.77 6000,7500 c 0,1455.88 -1045.29,2701.6 -2479.05,2954.4 l -556.49,81.1 c 831.22,831.2 1928.72,1343 3099.76,1445.5 L 4958.11,13408.8 C 2090.59,12903.2 0,10411.8 0,7500 l 0,0 C 0,5843.15 1343.15,4500 3000,4500 l 0,0 c 828.43,0 1500,-671.57 1500,-1500 0,-828.43 -671.57,-1500 -1500,-1500 -727.94,0 -1350.81,522.65 -1477.21,1239.53 L 180.922,1973.94 z M 4500,7500 l 0,0 c 0,-828.43 -671.57,-1500 -1500,-1500 -828.43,0 -1500,671.57 -1500,1500 0,828.43 671.57,1500 1500,1500 828.43,0 1500,-671.57 1500,-1500"
         id="path3016"
         style="fill:#000000;fill-opacity:1;fill-rule:nonzero;stroke:none" /></g></g></svg>